<svg version="1.1" xmlns="http://www.w3.org/2000/svg" viewBox="0 0 120 120">
<style>text { font: 1px Helvetica; font-weight: 600; white-space: pre; dominant-baseline: central; } line { stroke-width: 1; fill: none; stroke-linecap: round; stroke-linejoin: round; } .c0 { stroke: #79bde9 } .c1 { stroke: #073ced } .c2 { stroke: #bd1038 } .w2 { stroke-width: .75; }.w1 { stroke-width: 1; }</style><defs><g id="wm-xf"><circle r="1.2" fill="#000"/><circle r="0.9" fill="#fff"/><circle r="0.6" fill="#000"/><circle r="0.3" fill="#fff"/></g><g id="wm"><circle r="0.6" fill="#000"/><circle r="0.3" fill="#fff"/></g></defs><line class="c0 " x1="49" y1="32" x2="50" y2="32"/><line class="c0 " x1="49" y1="38" x2="50" y2="38"/><line class="c0 " x1="49" y1="29" x2="50" y2="28"/><line class="c0 " x1="49" y1="23" x2="50" y2="23"/><line class="c0 " x1="49" y1="40" x2="50" y2="40"/><line class="c0 " x1="49" y1="31" x2="50" y2="30"/><line class="c0 " x1="49" y1="33" x2="50" y2="33"/><line class="c0 " x1="49" y1="41" x2="50" y2="40"/><line class="c0 " x1="49" y1="26" x2="50" y2="25"/><line class="c0 " x1="49" y1="43" x2="50" y2="42"/><line class="c0 " x1="49" y1="28" x2="50" y2="27"/><line class="c0 " x1="49" y1="34" x2="50" y2="35"/><line class="c0 " x1="49" y1="25" x2="50" y2="26"/><line class="c0 " x1="49" y1="42" x2="50" y2="43"/><line class="c0 " x1="49" y1="27" x2="50" y2="27"/><line class="c0 " x1="49" y1="35" x2="50" y2="35"/><line class="c0 " x1="49" y1="22" x2="50" y2="22"/><line class="c0 " x1="49" y1="39" x2="50" y2="39"/><line class="c0 " x1="49" y1="24" x2="50" y2="24"/><line class="c0 " x1="49" y1="30" x2="50" y2="30"/><line class="c0 " x1="49" y1="22" x2="49" y2="36"/><line class="c0 " x1="49" y1="32" x2="50" y2="31"/><line class="c0 " x1="49" y1="23" x2="50" y2="22"/><line class="c0 " x1="49" y1="40" x2="50" y2="39"/><line class="c0 " x1="49" y1="31" x2="50" y2="32"/><line class="c0 " x1="49" y1="33" x2="50" y2="32"/><line class="c0 " x1="49" y1="29" x2="50" y2="30"/><line class="c0 " x1="49" y1="41" x2="50" y2="42"/><line class="c0 " x1="49" y1="26" x2="50" y2="27"/><line class="c0 " x1="49" y1="28" x2="50" y2="29"/><line class="c0 " x1="49" y1="34" x2="50" y2="34"/><line class="c0 " x1="49" y1="36" x2="50" y2="36"/><line class="c0 " x1="49" y1="25" x2="50" y2="25"/><line class="c0 " x1="49" y1="42" x2="50" y2="42"/><line class="c0 " x1="49" y1="27" x2="50" y2="26"/><line class="c0 " x1="49" y1="35" x2="50" y2="34"/><line class="c0 " x1="50" y1="22" x2="50" y2="36"/><line class="c0 " x1="49" y1="39" x2="50" y2="38"/><line class="c0 " x1="50" y1="38" x2="50" y2="43"/><line class="c0 " x1="49" y1="24" x2="50" y2="23"/><line class="c0 " x1="49" y1="30" x2="50" y2="29"/><line class="c0 " x1="49" y1="38" x2="50" y2="39"/><line class="c0 " x1="49" y1="23" x2="50" y2="24"/><line class="c0 " x1="49" y1="40" x2="50" y2="41"/><line class="c0 " x1="49" y1="32" x2="50" y2="33"/><line class="c0 " x1="49" y1="29" x2="50" y2="29"/><line class="c0 " x1="49" y1="33" x2="50" y2="34"/><line class="c0 " x1="49" y1="31" x2="50" y2="31"/><line class="c0 " x1="49" y1="41" x2="50" y2="41"/><line class="c0 " x1="49" y1="26" x2="50" y2="26"/><line class="c0 " x1="49" y1="43" x2="50" y2="43"/><line class="c0 " x1="49" y1="34" x2="50" y2="33"/><line class="c0 " x1="49" y1="28" x2="50" y2="28"/><line class="c0 " x1="49" y1="25" x2="50" y2="24"/><line class="c0 " x1="49" y1="36" x2="50" y2="35"/><line class="c0 " x1="49" y1="42" x2="50" y2="41"/><line class="c0 " x1="49" y1="38" x2="49" y2="43"/><line class="c0 " x1="49" y1="35" x2="50" y2="36"/><line class="c0 " x1="49" y1="27" x2="50" y2="28"/><line class="c0 " x1="49" y1="22" x2="50" y2="23"/><line class="c0 " x1="49" y1="39" x2="50" y2="40"/><line class="c0 " x1="49" y1="24" x2="50" y2="25"/><line class="c0 " x1="49" y1="30" x2="50" y2="31"/><line class="c1 w2" x1="37" y1="44" x2="37" y2="55"/><line class="c1 w2" x1="40" y1="71" x2="40" y2="74"/><line class="c1 w2" x1="40" y1="19" x2="40" y2="20"/><line class="c1 w2" x1="39" y1="15" x2="39" y2="18"/><line class="c1 w2" x1="38" y1="67" x2="39" y2="68"/><line class="c1 w2" x1="39" y1="70" x2="40" y2="71"/><line class="c1 w2" x1="40" y1="30" x2="41" y2="29"/><line class="c1 w2" x1="41" y1="21" x2="41" y2="29"/><line class="c1 w2" x1="37" y1="55" x2="38" y2="56"/><line class="c1 w2" x1="39" y1="18" x2="40" y2="19"/><line class="c1 w2" x1="40" y1="30" x2="40" y2="41"/><line class="c1 w2" x1="38" y1="56" x2="38" y2="67"/><line class="c1 w2" x1="37" y1="44" x2="40" y2="41"/><line class="c1 w2" x1="40" y1="74" x2="41" y2="75"/><line class="c1 w2" x1="40" y1="20" x2="41" y2="21"/><line class="c1 w2" x1="29" y1="5" x2="39" y2="15"/><line class="c1 w2" x1="39" y1="68" x2="39" y2="70"/><line class="c1 w2" x1="41" y1="75" x2="41" y2="82"/><line class="c2 w2" x1="26" y1="37" x2="39" y2="37"/><line class="c2 w2" x1="11" y1="31" x2="12" y2="30"/><line class="c2 w2" x1="12" y1="30" x2="19" y2="30"/><line class="c2 w2" x1="58" y1="28" x2="63" y2="28"/><line class="c2 w2" x1="63" y1="28" x2="66" y2="25"/><line class="c2 w2" x1="68" y1="24" x2="69" y2="24"/><line class="c2 w2" x1="8" y1="31" x2="11" y2="31"/><line class="c2 w2" x1="67" y1="25" x2="68" y2="24"/><line class="c2 w2" x1="24" y1="31" x2="25" y2="32"/><line class="c2 w2" x1="69" y1="17" x2="71" y2="19"/><line class="c2 w2" x1="25" y1="32" x2="25" y2="36"/><line class="c2 w2" x1="55" y1="34" x2="56" y2="34"/><line class="c2 w2" x1="64" y1="14" x2="67" y2="17"/><line class="c2 w2" x1="25" y1="36" x2="26" y2="37"/><line class="c2 w2" x1="71" y1="19" x2="71" y2="22"/><line class="c2 w2" x1="20" y1="31" x2="24" y2="31"/><line class="c2 w2" x1="52" y1="37" x2="56" y2="33"/><line class="c2 w2" x1="19" y1="30" x2="20" y2="31"/><line class="c2 w2" x1="67" y1="17" x2="69" y2="17"/><line class="c2 w2" x1="66" y1="25" x2="67" y2="25"/><line class="c2 w2" x1="41" y1="37" x2="52" y2="37"/><line class="c2 w2" x1="69" y1="24" x2="71" y2="22"/><line class="c2 w2" x1="56" y1="30" x2="56" y2="34"/><line class="c2 w2" x1="56" y1="30" x2="58" y2="28"/>

<circle id="station-bemowo" cx="8" cy="31" r="0.6"/>
<text x="7.25" y="31" text-anchor="end" transform="rotate(45 8, 31)">Bemowo</text>

<circle id="station-urlychow" cx="13" cy="30" r="0.6"/>
<text x="12.25" y="30" text-anchor="end" transform="rotate(45 13, 30)">Urlychów</text>

<circle id="station-ksiecia-janusza" cx="18" cy="30" r="0.6"/>
<text x="17.25" y="30" text-anchor="end" transform="rotate(45 18, 30)">Księcia Janusza</text>

<circle id="station-mlynow" cx="23" cy="31" r="0.6"/>
<text x="22.25" y="31" text-anchor="end" transform="rotate(45 23, 31)">Młynów</text>

<circle id="station-plocka" cx="25" cy="34" r="0.6"/>
<text x="24.25" y="34" text-anchor="end">Płocka</text>

<circle id="station-mlociny" cx="29" cy="5" r="0.6"/>
<text x="29.75" y="5">Młociny</text>

<circle id="station-rondo-daszynskiego" cx="31" cy="37" r="0.6"/>
<text x="30.25" y="37" text-anchor="end" transform="rotate(45 31, 37)">Rondo Daszyńskiego</text>

<circle id="station-wawrzyszew" cx="32" cy="8" r="0.6"/>
<text x="32.75" y="8">Wawrzyszew</text>

<circle id="station-stare-bielany" cx="35" cy="11" r="0.6"/>
<text x="35.75" y="11">Stare Bielany</text>

<circle id="station-rondo-onz" cx="36" cy="37" r="0.6"/>
<text x="35.25" y="37" text-anchor="end" transform="rotate(45 36, 37)">Rondo ONZ</text>

<circle id="station-pole-mokotowskie" cx="37" cy="45" r="0.6"/>
<text x="37.75" y="45">Pole Mokotowskie</text>

<circle id="station-raclawicka" cx="37" cy="49" r="0.6"/>
<text x="37.75" y="49">Racławicka</text>

<circle id="station-wierzbno" cx="37" cy="53" r="0.6"/>
<text x="37.75" y="53">Wierzbno</text>

<circle id="station-slodowiec" cx="38" cy="14" r="0.6"/>
<text x="38.75" y="14">Słodowiec</text>

<circle id="station-wilanowska" cx="38" cy="57" r="0.6"/>
<text x="38.75" y="57">Wilanowska</text>

<circle id="station-sluzew" cx="38" cy="61" r="0.6"/>
<text x="38.75" y="61">Służew</text>

<circle id="station-ursynow" cx="38" cy="66" r="0.6"/>
<text x="38.75" y="66">Ursynów</text>

<circle id="station-marymont" cx="39" cy="17" r="0.6"/>
<text x="39.75" y="17">Marymont</text>

<circle id="station-ratusz-arsenal" cx="40" cy="31" r="0.6"/>
<text x="40.75" y="31">Ratusz Arsenał</text>

<circle id="station-swietokrzyska" cx="40" cy="37" r="0.6"/>
<text x="40" y="35.25" text-anchor="middle">Świętokrzyska</text>

<circle id="station-politechnika" cx="40" cy="41" r="0.6"/>
<text x="40.75" y="41">Politechnika</text>

<circle id="station-stoklosy" cx="40" cy="72" r="0.6"/>
<text x="40.75" y="72">Stokłosy</text>

<circle id="station-plac-wilsona" cx="41" cy="21" r="0.6"/>
<text x="41.75" y="21">Plac Wilsona</text>

<circle id="station-dworzec-gdanski" cx="41" cy="26" r="0.6"/>
<text x="41.75" y="26">Dworzec Gdański</text>

<circle id="station-natolin" cx="41" cy="78" r="0.6"/>
<text x="41.75" y="78">Natolin</text>

<circle id="station-kabaty" cx="41" cy="82" r="0.6"/>
<text x="41.75" y="82">Kabaty</text>

<circle id="station-nowy-swiat-uniwersytet" cx="44" cy="37" r="0.6"/>
<text x="44.75" y="37" transform="rotate(-45 44, 37)">Nowy Świat-Uniwersytet</text>

<circle id="station-centrum-nauki-kopernik" cx="48" cy="37" r="0.6"/>
<text x="48.75" y="37" transform="rotate(-45 48, 37)">Centrum Nauki Kopernik</text>

<circle id="station-stadion-narodowy" cx="54" cy="35" r="0.6"/>
<text x="54.75" y="35" transform="rotate(45 54, 35)">Stadion Narodowy</text>

<circle id="station-dworzec-wilenski" cx="56" cy="31" r="0.6"/>
<text x="56.75" y="31" transform="rotate(45 56, 31)">Dworzec Wileński</text>

<circle id="station-szwedzka" cx="61" cy="28" r="0.6"/>
<text x="61.75" y="28" transform="rotate(45 61, 28)">Szwedzka</text>

<circle id="station-brodno" cx="64" cy="14" r="0.6"/>
<text x="64.75" y="14">Bródno</text>

<circle id="station-targowek-mieszkaniowy" cx="64" cy="27" r="0.6"/>
<text x="64.75" y="27">Targówek Mieszkaniowy</text>

<circle id="station-trocka" cx="67" cy="25" r="0.6"/>
<text x="67.75" y="25">Trocka</text>

<circle id="station-kondratowicza" cx="68" cy="17" r="0.6"/>
<text x="68.75" y="17">Kondratowicza</text>

<circle id="station-zacisze" cx="71" cy="21" r="0.6"/>
<text x="71.75" y="21">Zacisze</text>
</svg>
